{"title":"Alice.in.Wonderland.2010.1080p.Bluray.x264-CBGB","uid":12021998,"size":8531125159,"categoryP":"video","categoryS":"hd___movies","magnet":"?xt=urn:btih:eeb02f1aa462b208c304eda27033bce02e086f5b&amp;dn=Alice.in.Wonderland.2010.1080p.Bluray.x264-CBGB&amp;tr=udp%3A%2F%2Ftracker.openbittorrent.com%3A80&amp;tr=udp%3A%2F%2Fopen.demonii.com%3A1337&amp;tr=udp%3A%2F%2Ftracker.coppersurfer.tk%3A6969&amp;tr=udp%3A%2F%2Fexodus.desync.com%3A6969","seeders":0,"leechers":0,"uploader":null,"files":3,"time":1434413173,"description":"Video\nID                                       : 1\nFormat                                   : AVC\nFormat/Info                              : Advanced Video Codec\nFormat profile                           : High@L4\nFormat settings, CABAC                   : Yes\nFormat settings, ReFrames                : 4 frames\nCodec ID                                 : V_MPEG4/ISO/AVC\nDuration                                 : 1h 48mn\nBit rate                                 : 8 968 Kbps\nWidth                                    : 1 920 pixels\nHeight                                   : 1 080 pixels\nDisplay aspect ratio                     : 16:9\nFrame rate mode                          : Constant\nFrame rate                               : 23.976 fps\nColor space                              : YUV\nChroma subsampling                       : 4:2:0\nBit depth                                : 8 bits\nScan type                                : Progressive\nBits/(Pixel*Frame)                       : 0.180\nStream size                              : 6.64 GiB (84%)\nWriting library                          : x264 core 94 r1583 7608d73\nEncoding settings                        : cabac=1 / ref=4 / deblock=1:0:0 / analyse=0x3:0x113 / me=umh / subme=7 / psy=1 / psy_rd=1.00:0.20 / mixed_ref=1 / me_range=16 / chroma_me=1 / trellis=1 / 8x8dct=1 / cqm=0 / deadzone=21,11 / fast_pskip=1 / chroma_qp_offset=-3 / threads=12 / sliced_threads=0 / nr=0 / decimate=1 / interlaced=0 / constrained_intra=0 / bframes=3 / b_pyramid=2 / b_adapt=1 / b_bias=0 / direct=3 / weightb=1 / weightp=0 / keyint=250 / keyint_min=25 / scenecut=40 / intra_refresh=0 / rc_lookahead=40 / rc=2pass / mbtree=1 / bitrate=8968 / ratetol=1.0 / qcomp=0.60 / qpmin=10 / qpmax=51 / qpstep=4 / cplxblur=20.0 / qblur=0.5 / ip_ratio=1.40 / aq=1:1.00\nLanguage                                 : English\nDefault                                  : Yes\nForced                                   : No\n\nAudio\nID                                       : 2\nFormat                                   : DTS\nFormat/Info                              : Digital Theater Systems\nFormat profile                           : ES\nMode                                     : 16\nFormat settings, Endianness              : Big\nCodec ID                                 : A_DTS\nDuration                                 : 1h 48mn\nBit rate mode                            : Constant\nBit rate                                 : 1 509 Kbps\nChannel(s)                               : 6 channels\nChannel positions                        : Front: L C R, Side: L R, LFE\nSampling rate                            : 48.0 KHz\nBit depth                                : 24 bits\nCompression mode                         : Lossy\nStream size                              : 1.14 GiB (14%)\nLanguage                                 : English\nDefault                                  : Yes\nForced                                   : No\n\nText\nID                                       : 3\nFormat                                   : UTF-8\nCodec ID                                 : S_TEXT/UTF8\nCodec ID/Info                            : UTF-8 Plain Text\nLanguage                                 : English\nDefault                                  : No\nForced                                   : No\n\nMenu\n00:00:00.000                             : en:00:00:00.000\n00:04:24.890                             : en:00:04:24.890\n00:10:36.886                             : en:00:10:36.886\n00:18:13.509                             : en:00:18:13.509\n00:24:44.316                             : en:00:24:44.316\n00:28:41.345                             : en:00:28:41.345\n00:36:51.126                             : en:00:36:51.126\n00:46:15.731                             : en:00:46:15.731\n00:52:44.787                             : en:00:52:44.787\n01:04:05.050                             : en:01:04:05.050\n01:10:02.198                             : en:01:10:02.198\n01:15:36.490                             : en:01:15:36.490\n01:23:39.264                             : en:01:23:39.264\n01:34:12.689                             : en:01:34:12.689\n01:36:58.354                             : en:01:36:58.354\n01:40:12.131                             : en:01:40:12.131","torrent":{"xt":"urn:btih:eeb02f1aa462b208c304eda27033bce02e086f5b","amp;dn":"Alice.in.Wonderland.2010.1080p.Bluray.x264-CBGB","amp;tr":["udp%3A%2F%2Ftracker.openbittorrent.com%3A80","udp%3A%2F%2Fopen.demonii.com%3A1337","udp%3A%2F%2Ftracker.coppersurfer.tk%3A6969","udp%3A%2F%2Fexodus.desync.com%3A6969"],"infoHash":"eeb02f1aa462b208c304eda27033bce02e086f5b","infoHashBuffer":{"type":"Buffer","data":[238,176,47,26,164,98,178,8,195,4,237,162,112,51,188,224,46,8,111,91]},"announce":[],"urlList":[]}}